# xmcd
#
# Track frame offsets: 
#        150
#        13237
#        25087
#        42562
#        53361
#        68152
#        81802
#        112134
#        131559
#        152500
#        168585
#        188535
#
# Disc length: 2754 seconds
#
# Revision: 7
# Processed by: cddbd v1.5.2PL0 Copyright (c) Steve Scherf et al.
# Submitted via: ExactAudioCopyFreeDBPlugin 1.0
#
DISCID=960ac00c
DTITLE=Tennessee Gospel Society - O Happy Day - Gospel Highlights  [CD
DTITLE=2)
DYEAR=1999
DGENRE=Gospel
TTITLE0=Nobody Knows
TTITLE1=Poor Little Jesus
TTITLE2=Glory Halleluja
TTITLE3=When The Saints
TTITLE4=Rock Of Ages
TTITLE5=Gospel Train
TTITLE6=Go Down, Moses
TTITLE7=Amazing Grace
TTITLE8=Old Time Religion
TTITLE9=Glory To That Newborn King
TTITLE10=Down By The Riverside
TTITLE11=Jesus On The MainLine
EXTD=YEAR: 1999
EXTT0=
EXTT1=
EXTT2=
EXTT3=
EXTT4=
EXTT5=
EXTT6=
EXTT7=
EXTT8=
EXTT9=
EXTT10=
EXTT11=
PLAYORDER=
